# Blender 4.0.2
# www.blender.org
mtllib burgerCheese.mtl
o burgerCheese
v 0.000000 0.000000 0.180000
v -0.127279 0.000000 0.127279
v 0.000000 0.040000 0.180000
v -0.127279 0.040000 0.127279
v 0.000000 -0.000000 -0.180000
v 0.127279 -0.000000 -0.127279
v 0.000000 0.040000 -0.180000
v 0.127279 0.040000 -0.127279
v 0.127279 0.000000 0.127279
v 0.127279 0.040000 0.127279
v 0.180000 0.000000 0.000000
v -0.127279 -0.000000 -0.127279
v -0.180000 0.000000 0.000000
v 0.180000 0.040000 -0.000000
v -0.127279 0.040000 -0.127279
v -0.180000 0.040000 -0.000000
v 0.079560 0.220000 -0.000000
v 0.056257 0.220000 0.056257
v 0.056257 0.220000 -0.056257
v 0.000000 0.220000 -0.079560
v 0.000000 0.220000 0.079560
v -0.056257 0.220000 -0.056257
v -0.056257 0.220000 0.056257
v -0.079560 0.220000 -0.000000
v 0.180000 0.100000 -0.000000
v 0.127279 0.100000 -0.127279
v 0.127279 0.100000 0.127279
v 0.000000 0.100000 0.180000
v 0.000000 0.100000 -0.180000
v -0.127279 0.100000 0.127279
v -0.127279 0.100000 -0.127279
v -0.180000 0.100000 -0.000000
v -0.187200 0.130000 -0.000000
v -0.132370 0.130000 0.132370
v -0.132370 0.130000 -0.132370
v 0.000000 0.130000 -0.187200
v 0.132370 0.130000 -0.132370
v 0.187200 0.130000 -0.000000
v 0.132370 0.130000 0.132370
v 0.000000 0.130000 0.187200
v 0.159120 0.190000 -0.000000
v 0.112515 0.190000 0.112515
v -0.159120 0.190000 -0.000000
v -0.112515 0.190000 0.112515
v 0.000000 0.190000 -0.159120
v 0.112515 0.190000 -0.112515
v 0.000000 0.190000 0.159120
v -0.112515 0.190000 -0.112515
v 0.094057 0.095600 -0.171000
v 0.123848 0.055600 -0.142698
v 0.153640 0.095600 -0.114397
v -0.123848 0.055600 -0.142698
v -0.094057 0.095600 -0.171000
v -0.153640 0.095600 -0.114397
v 0.153640 0.095600 0.114397
v 0.123848 0.055600 0.142698
v 0.094057 0.095600 0.171000
v -0.123848 0.055600 0.142698
v -0.153640 0.095600 0.114397
v -0.094057 0.095600 0.171000
v -0.000000 0.040000 0.180000
v -0.000000 0.040000 -0.180000
v 0.180000 0.085600 -0.000000
v 0.127279 0.085600 0.127279
v 0.127279 0.085600 -0.127279
v -0.000000 0.085600 -0.180000
v -0.000000 0.085600 0.180000
v -0.127279 0.085600 -0.127279
v -0.127279 0.085600 0.127279
v -0.180000 0.085600 -0.000000
v 0.189000 0.062800 -0.000000
v 0.133643 0.062800 0.133643
v -0.000000 0.062800 0.189000
v -0.133643 0.062800 0.133643
v -0.189000 0.062800 -0.000000
v 0.133643 0.062800 -0.133643
v -0.000000 0.062800 -0.189000
v -0.133643 0.062800 -0.133643
vn -0.0000 -0.0000 1.0000
vn -0.7071 -0.0000 0.7071
vn -0.0000 -0.0000 -1.0000
vn 0.7071 -0.0000 -0.7071
vn 0.7071 -0.0000 0.7071
vn -0.0000 -1.0000 -0.0000
vn 1.0000 -0.0000 -0.0000
vn -0.7071 -0.0000 -0.7071
vn -0.3536 0.3827 -0.8535
vn -0.0662 -0.2230 -0.9726
vn -0.3827 -0.0000 -0.9239
vn -1.0000 -0.0000 -0.0000
vn -0.0000 1.0000 -0.0000
vn -0.6876 -0.2334 0.6876
vn -0.9724 -0.2334 -0.0000
vn -0.6876 -0.2334 -0.6876
vn -0.0000 -0.2334 -0.9724
vn 0.9724 -0.2334 -0.0000
vn 0.6876 -0.2334 -0.6876
vn 0.6876 -0.2334 0.6876
vn -0.0000 -0.2334 0.9724
vn 0.6404 0.4239 0.6404
vn 0.9057 0.4239 -0.0000
vn -0.9057 0.4239 -0.0000
vn -0.6404 0.4239 0.6404
vn -0.0000 0.4239 -0.9057
vn 0.6404 0.4239 -0.6404
vn -0.0000 0.4239 0.9057
vn -0.6404 0.4239 -0.6404
vn 0.3528 0.9357 -0.0000
vn 0.2495 0.9357 0.2495
vn -0.2495 0.9357 -0.2495
vn -0.0000 0.9357 -0.3528
vn 0.2495 0.9357 -0.2495
vn -0.0000 0.9357 0.3528
vn -0.2495 0.9357 0.2495
vn -0.3528 0.9357 -0.0000
vn 0.6883 0.7005 -0.1885
vn 0.9645 -0.0000 -0.2642
vn 0.7662 0.6074 -0.2099
vn -0.6883 0.7005 -0.1885
vn -0.7662 0.6074 -0.2099
vn -0.9645 -0.0000 -0.2642
vn 0.7662 0.6074 0.2099
vn 0.9645 -0.0000 0.2642
vn 0.6883 0.7005 0.1885
vn -0.7662 0.6074 0.2099
vn -0.6883 0.7005 0.1885
vn -0.9645 -0.0000 0.2642
vn 0.7662 0.6074 -0.2098
vn 0.6883 0.7005 0.1886
vn 0.7661 0.6074 -0.2099
vn 0.7662 0.6074 0.2098
vn 0.7661 0.6074 0.2099
vn -0.7662 0.6074 -0.2098
vn -0.7661 0.6074 -0.2099
vn -0.7662 0.6074 0.2098
vn -0.7661 0.6074 0.2099
vn -0.6883 0.7005 -0.1886
vn 0.6292 0.4564 0.6292
vn 0.8898 0.4564 -0.0000
vn 0.8897 0.4565 -0.0000
vn 0.6292 0.4564 0.6291
vn 0.6292 0.4565 0.6291
vn -0.0000 -0.4564 0.8898
vn -0.6292 -0.4564 0.6292
vn -0.6291 -0.4564 0.6292
vn -0.0000 -0.4565 0.8897
vn -0.6291 -0.4565 0.6292
vn -0.8898 -0.4564 -0.0000
vn -0.8897 -0.4565 -0.0000
vn -0.6292 -0.4564 0.6291
vn -0.6292 -0.4565 0.6291
vn -0.6291 -0.4564 -0.6292
vn -0.0000 -0.4564 -0.8898
vn -0.6291 -0.4565 -0.6292
vn -0.0000 -0.4565 -0.8897
vn 0.8897 -0.4565 -0.0000
vn 0.6292 -0.4564 -0.6291
vn 0.6292 -0.4565 -0.6291
vn 0.6292 -0.4564 -0.6292
vn 0.8898 -0.4564 -0.0000
vn -0.8897 0.4565 -0.0000
vn -0.6292 0.4564 -0.6291
vn -0.6292 0.4565 -0.6291
vn -0.6292 0.4564 -0.6292
vn -0.8898 0.4564 -0.0000
vn -0.6291 0.4564 -0.6292
vn -0.0000 0.4565 -0.8897
vn -0.6291 0.4565 -0.6292
vn -0.0000 0.4564 0.8898
vn -0.6291 0.4565 0.6292
vn -0.0000 0.4565 0.8897
vn -0.6291 0.4564 0.6292
vn 0.6291 -0.4564 0.6292
vn 0.6291 -0.4565 0.6292
vn -0.6292 -0.4564 -0.6291
vn -0.6292 -0.4565 -0.6291
vn -0.6292 -0.4564 -0.6292
vn 0.6292 0.4564 -0.6291
vn 0.6292 0.4565 -0.6291
vn 0.6292 0.4564 -0.6292
vn -0.6292 0.4565 0.6291
vn -0.6292 0.4564 0.6291
vn 0.6292 -0.4565 0.6291
vn 0.6292 -0.4564 0.6291
vn 0.6291 -0.4564 -0.6292
vn 0.6291 -0.4565 -0.6292
vn 0.6291 0.4564 0.6292
vn 0.6291 0.4565 0.6292
vn 0.3595 0.3426 -0.8680
vn 0.3546 0.6596 -0.6627
vn 0.2903 -0.0179 -0.9568
vn 0.2239 0.0066 -0.9746
vn -0.6438 0.1208 -0.7556
vn -0.3595 0.3426 -0.8680
vn -0.0362 0.1842 -0.9822
vt 2.711930 1.574803
vt -2.711930 0.000000
vt 2.711930 0.000000
vt -2.711930 1.574803
vt 5.010993 5.010993
vt 5.010993 -5.010993
vt 7.086614 0.000000
vt 0.000000 7.086614
vt 0.000000 -7.086614
vt -5.010993 5.010993
vt -5.010993 -5.010993
vt -7.086614 0.000000
vt -2.214859 -2.214859
vt -2.214859 2.214859
vt -3.132283 -0.000000
vt 0.000000 -3.132283
vt 0.000000 3.132283
vt 2.214859 -2.214859
vt 2.214859 2.214859
vt 3.132283 -0.000000
vt 2.711930 1.417291
vt -2.820407 2.627079
vt -2.711930 1.417291
vt 2.820407 2.627079
vt -2.397346 0.955366
vt 2.820407 -1.618189
vt 2.397346 0.955366
vt -2.820407 -1.618189
vt 1.198673 -0.894027
vt -2.397346 -4.019629
vt 2.397346 -4.019629
vt -1.198673 -0.894027
vt 1.760133 1.574803
vt 2.647650 -0.000000
vt 3.535168 1.574803
vt -1.760133 1.574803
vt -3.535168 1.574803
vt -2.647650 -0.000000
vt -2.647650 -0.000000
vt 2.647650 0.000000
vt -1.325618 -4.724410
vt -2.165354 3.160570
vt -2.165354 -3.160570
vt -1.325618 4.724410
vt 1.325618 -4.724410
vt 1.325618 4.724410
vt 2.165354 -3.160570
vt 2.165354 3.160570
vt 0.000000 -7.086614
vt 0.000000 7.086614
vt -2.711930 -1.059261
vt 2.847526 -1.912001
vt 2.711930 -1.059261
vt -2.847526 -1.912001
vt 2.847526 3.366141
vt -2.711930 2.513401
vt 2.711930 2.513401
vt -2.847526 3.366141
vt 5.261543 5.261543
vt 5.261543 -5.261543
vt 7.440945 0.000000
s 0
usemtl brownLight
f 3/1/1 2/2/2 1/3/1
f 2/2/2 3/1/1 4/4/2
f 7/1/3 6/2/4 5/3/3
f 6/2/4 7/1/3 8/4/4
f 10/1/5 1/2/1 9/3/5
f 1/2/1 10/1/5 3/4/1
f 9/5/6 6/6/6 11/7/6
f 6/6/6 9/5/6 1/8/6
f 6/6/6 1/8/6 5/9/6
f 5/9/6 1/8/6 2/10/6
f 5/9/6 2/10/6 12/11/6
f 12/11/6 2/10/6 13/12/6
f 14/4/7 6/3/4 8/1/4
f 6/3/4 14/4/7 11/2/7
f 15/1/8 5/2/3 12/3/8
f 5/2/9 15/1/10 7/9/11
f 13/3/12 15/4/8 12/2/8
f 15/4/8 13/3/12 16/1/12
f 2/3/2 16/4/12 13/2/12
f 16/4/12 2/3/2 4/1/2
f 10/4/5 11/3/7 14/1/7
f 11/3/7 10/4/5 9/2/5
f 3/8/13 7/9/13 15/6/13
f 3/8/13 15/6/13 4/5/13
f 4/5/13 15/6/13 16/7/13
f 19/13/13 18/14/13 17/15/13
f 18/14/13 19/13/13 20/16/13
f 18/14/13 20/16/13 21/17/13
f 21/17/13 20/16/13 22/18/13
f 21/17/13 22/18/13 23/19/13
f 23/19/13 22/18/13 24/20/13
f 27/5/6 26/6/6 25/7/6
f 26/6/6 27/5/6 28/8/6
f 26/6/6 28/8/6 29/9/6
f 29/9/6 28/8/6 30/10/6
f 29/9/6 30/10/6 31/11/6
f 31/11/6 30/10/6 32/12/6
f 30/21/14 33/22/15 32/23/15
f 33/22/15 30/21/14 34/24/14
f 35/24/16 29/23/17 31/21/16
f 29/23/17 35/24/16 36/22/17
f 38/22/18 26/21/19 37/24/19
f 26/21/19 38/22/18 25/23/18
f 39/24/20 28/23/21 27/21/20
f 28/23/21 39/24/20 40/22/21
f 31/23/16 33/24/15 35/22/16
f 33/24/15 31/23/16 32/21/15
f 39/22/20 25/21/18 38/24/18
f 25/21/18 39/22/20 27/23/20
f 36/24/17 26/23/19 29/21/17
f 26/23/19 36/24/17 37/22/19
f 40/24/21 30/23/14 28/21/21
f 30/23/14 40/24/21 34/22/14
f 42/25/22 38/26/23 41/27/23
f 38/26/23 42/25/22 39/28/22
f 33/28/24 44/27/25 43/25/24
f 44/27/25 33/28/24 34/26/25
f 45/27/26 37/28/27 36/26/26
f 37/28/27 45/27/26 46/25/27
f 42/27/22 40/28/28 39/26/22
f 40/28/28 42/27/22 47/25/28
f 46/27/27 38/28/23 37/26/27
f 38/28/23 46/27/27 41/25/23
f 47/27/28 34/28/25 40/26/28
f 34/28/25 47/27/28 44/25/25
f 48/27/29 36/28/26 35/26/29
f 36/28/26 48/27/29 45/25/26
f 33/26/24 48/25/29 35/28/29
f 48/25/29 33/26/24 43/27/24
f 17/29/30 42/30/31 41/31/30
f 42/30/31 17/29/30 18/32/31
f 48/31/32 20/32/33 45/30/33
f 20/32/33 48/31/32 22/29/32
f 46/31/34 17/32/30 41/30/30
f 17/32/30 46/31/34 19/29/34
f 18/29/31 47/30/35 42/31/31
f 47/30/35 18/29/31 21/32/35
f 23/32/36 47/31/35 21/29/35
f 47/31/35 23/32/36 44/30/36
f 48/30/32 24/29/37 22/32/32
f 24/29/37 48/30/32 43/31/37
f 45/31/33 19/32/34 46/30/34
f 19/32/34 45/31/33 20/29/33
f 24/32/37 44/31/36 23/29/36
f 44/31/36 24/32/37 43/30/37
usemtl yellow
f 51/33/38 50/34/39 49/35/40
f 54/36/41 53/37/42 52/38/43
f 57/37/44 56/39/45 55/36/46
f 60/35/47 59/33/48 58/40/49
f 49/41/50 55/42/51 51/43/38
f 55/42/51 49/41/52 57/44/53
f 57/44/54 49/41/50 53/45/55
f 57/44/53 53/45/56 60/46/57
f 60/46/58 53/45/55 54/47/59
f 60/46/57 54/47/59 59/48/48
usemtl brownDark
f 65/11/13 64/10/13 63/12/13
f 64/10/13 65/11/13 66/49/13
f 67/50/13 66/49/13 68/6/13
f 67/50/13 68/6/13 69/5/13
f 69/5/13 68/6/13 70/7/13
f 67/50/13 64/10/13 66/49/13
f 64/51/60 71/52/61 63/53/61
f 71/52/62 64/51/63 72/54/64
f 73/55/65 4/56/66 61/57/65
f 4/56/67 73/55/68 74/58/69
f 4/57/66 75/58/70 16/56/70
f 75/58/71 4/57/72 74/55/73
f 74/59/13 78/60/13 75/61/13
f 78/55/74 62/56/75 15/57/74
f 62/56/75 78/55/76 77/58/77
f 71/58/78 8/57/79 76/55/80
f 8/57/81 71/58/82 14/56/82
f 75/52/83 68/51/84 78/54/85
f 68/51/86 75/52/87 70/53/87
f 68/53/88 77/54/89 78/52/90
f 67/53/91 74/54/92 73/52/93
f 74/54/94 67/53/91 69/51/94
f 72/55/95 61/56/65 10/57/95
f 61/56/65 72/55/96 73/58/68
f 15/56/97 75/55/71 78/58/98
f 75/55/70 15/56/99 16/57/70
f 65/53/100 71/54/62 76/52/101
f 71/54/61 65/53/102 63/51/61
f 74/52/103 70/51/87 75/54/83
f 70/51/87 74/52/104 69/53/104
f 72/58/105 14/57/82 71/55/78
f 14/57/82 72/58/106 10/56/106
f 77/55/75 8/56/81 62/57/75
f 8/56/107 77/55/77 76/58/108
f 64/53/109 73/54/93 72/52/110
f 73/54/91 64/53/60 67/51/91
f 66/49/111 65/53/112 76/58/113 77/54/114
f 68/53/115 66/49/116 77/54/117
