# Blender 4.0.2
# www.blender.org
mtllib ball.mtl
o Icosphere
v 0.000000 -1.000000 0.000000
v -0.723607 -0.447220 -0.525725
v 0.276388 -0.447220 -0.850649
v 0.894426 -0.447216 0.000000
v 0.276388 -0.447220 0.850649
v -0.723607 -0.447220 0.525725
v -0.276388 0.447220 -0.850649
v 0.723607 0.447220 -0.525725
v 0.723607 0.447220 0.525725
v -0.276388 0.447220 0.850649
v -0.894426 0.447216 0.000000
v 0.000000 1.000000 0.000000
v 0.162456 -0.850654 -0.499995
v -0.425323 -0.850654 -0.309011
v -0.262869 -0.525738 -0.809012
v -0.850648 -0.525736 0.000000
v -0.425323 -0.850654 0.309011
v 0.525730 -0.850652 0.000000
v 0.688189 -0.525736 -0.499997
v 0.162456 -0.850654 0.499995
v 0.688189 -0.525736 0.499997
v -0.262869 -0.525738 0.809012
v -0.951058 0.000000 -0.309013
v -0.951058 0.000000 0.309013
v 0.000000 0.000000 -1.000000
v -0.587786 0.000000 -0.809017
v 0.951058 0.000000 -0.309013
v 0.587786 0.000000 -0.809017
v 0.587786 0.000000 0.809017
v 0.951058 0.000000 0.309013
v -0.587786 0.000000 0.809017
v 0.000000 0.000000 1.000000
v -0.688189 0.525736 -0.499997
v 0.262869 0.525738 -0.809012
v 0.850648 0.525736 0.000000
v 0.262869 0.525738 0.809012
v -0.688189 0.525736 0.499997
v -0.162456 0.850654 -0.499995
v -0.525730 0.850652 0.000000
v 0.425323 0.850654 -0.309011
v 0.425323 0.850654 0.309011
v -0.162456 0.850654 0.499995
vn -0.0000 -1.0000 -0.0000
vn -0.4253 -0.8507 -0.3090
vn 0.1625 -0.8507 -0.5000
vn -0.7236 -0.4472 -0.5257
vn -0.8506 -0.5257 -0.0000
vn 0.5257 -0.8507 -0.0000
vn 0.1625 -0.8507 0.5000
vn -0.4253 -0.8507 0.3090
vn -0.9511 -0.0000 -0.3090
vn 0.2764 -0.4472 -0.8506
vn -0.2629 -0.5257 -0.8090
vn -0.0000 -0.0000 -1.0000
vn 0.8944 -0.4472 -0.0000
vn 0.6882 -0.5257 -0.5000
vn 0.9511 -0.0000 -0.3090
vn 0.2764 -0.4472 0.8506
vn 0.6882 -0.5257 0.5000
vn 0.5878 -0.0000 0.8090
vn -0.7236 -0.4472 0.5257
vn -0.2629 -0.5257 0.8090
vn -0.5878 -0.0000 0.8090
vn -0.5878 -0.0000 -0.8090
vn 0.5878 -0.0000 -0.8090
vn 0.9511 -0.0000 0.3090
vn -0.0000 -0.0000 1.0000
vn -0.9511 -0.0000 0.3090
vn -0.2764 0.4472 -0.8506
vn -0.6882 0.5257 -0.5000
vn -0.1625 0.8507 -0.5000
vn 0.7236 0.4472 -0.5257
vn 0.2629 0.5257 -0.8090
vn 0.4253 0.8507 -0.3090
vn 0.7236 0.4472 0.5257
vn 0.8506 0.5257 -0.0000
vn 0.4253 0.8507 0.3090
vn -0.2764 0.4472 0.8506
vn 0.2629 0.5257 0.8090
vn -0.1625 0.8507 0.5000
vn -0.8944 0.4472 -0.0000
vn -0.6882 0.5257 0.5000
vn -0.5257 0.8507 -0.0000
vn -0.0000 1.0000 -0.0000
vt 0.342226 0.000000
vt 0.427782 0.148189
vt 0.256670 0.148189
vt 0.513338 0.296378
vt 0.598894 0.148189
vt 0.684450 0.296378
vt 1.711122 0.000000
vt 1.796678 0.148189
vt 1.625566 0.148189
vt 1.368898 0.000000
vt 1.454454 0.148189
vt 1.283342 0.148189
vt 1.026674 0.000000
vt 1.112230 0.148189
vt 0.941118 0.148189
vt 0.598894 0.444567
vt 0.171114 0.296378
vt 0.342226 0.296378
vt 0.256670 0.444567
vt 1.540010 0.296378
vt 1.711122 0.296378
vt 1.625566 0.444567
vt 1.197786 0.296378
vt 1.368898 0.296378
vt 1.283342 0.444567
vt 0.855562 0.296378
vt 1.026674 0.296378
vt 0.941118 0.444567
vt 0.427782 0.444567
vt 0.085557 0.444567
vt 1.454454 0.444567
vt 1.112230 0.444567
vt 0.770006 0.444567
vt 0.342226 0.592755
vt 0.513338 0.592755
vt 0.427782 0.740944
vt 0.000000 0.592755
vt 0.171113 0.592755
vt 0.085557 0.740944
vt 1.368898 0.592755
vt 1.540010 0.592755
vt 1.454454 0.740944
vt 1.026674 0.592755
vt 1.197786 0.592755
vt 1.112230 0.740944
vt 0.684450 0.592755
vt 0.855562 0.592755
vt 0.770006 0.740944
vt 0.941118 0.740944
vt 0.855562 0.889133
vt 1.283342 0.740944
vt 1.197786 0.889133
vt 1.625566 0.740944
vt 1.540010 0.889133
vt 1.711122 0.592755
vt 0.256670 0.740944
vt 0.171114 0.889133
vt 0.598894 0.740944
vt 0.513338 0.889133
vt 1.796678 0.444567
vt 1.882234 0.296378
vt 0.770006 0.148189
vt 0.684450 0.000000
s 1
usemtl Material.001
f 1/1/1 14/2/2 13/3/3
f 2/4/4 14/5/2 16/6/5
f 1/7/1 13/8/3 18/9/6
f 1/10/1 18/11/6 20/12/7
f 1/13/1 20/14/7 17/15/8
f 2/4/4 16/6/5 23/16/9
f 3/17/10 15/18/11 25/19/12
f 4/20/13 19/21/14 27/22/15
f 5/23/16 21/24/17 29/25/18
f 6/26/19 22/27/20 31/28/21
f 2/4/4 23/16/9 26/29/22
f 3/17/10 25/19/12 28/30/23
f 4/20/13 27/22/15 30/31/24
f 5/23/16 29/25/18 32/32/25
f 6/26/19 31/28/21 24/33/26
f 7/34/27 33/35/28 38/36/29
f 8/37/30 34/38/31 40/39/32
f 9/40/33 35/41/34 41/42/35
f 10/43/36 36/44/37 42/45/38
f 11/46/39 37/47/40 39/48/41
f 39/48/41 42/49/38 12/50/42
f 39/48/41 37/47/40 42/49/38
f 37/47/40 10/43/36 42/49/38
f 42/45/38 41/51/35 12/52/42
f 42/45/38 36/44/37 41/51/35
f 36/44/37 9/40/33 41/51/35
f 41/42/35 40/53/32 12/54/42
f 41/42/35 35/41/34 40/53/32
f 35/41/34 8/55/30 40/53/32
f 40/39/32 38/56/29 12/57/42
f 40/39/32 34/38/31 38/56/29
f 34/38/31 7/34/27 38/56/29
f 38/36/29 39/58/41 12/59/42
f 38/36/29 33/35/28 39/58/41
f 33/35/28 11/46/39 39/58/41
f 24/33/26 37/47/40 11/46/39
f 24/33/26 31/28/21 37/47/40
f 31/28/21 10/43/36 37/47/40
f 32/32/25 36/44/37 10/43/36
f 32/32/25 29/25/18 36/44/37
f 29/25/18 9/40/33 36/44/37
f 30/31/24 35/41/34 9/40/33
f 30/31/24 27/22/15 35/41/34
f 27/22/15 8/55/30 35/41/34
f 28/30/23 34/38/31 8/37/30
f 28/30/23 25/19/12 34/38/31
f 25/19/12 7/34/27 34/38/31
f 26/29/22 33/35/28 7/34/27
f 26/29/22 23/16/9 33/35/28
f 23/16/9 11/46/39 33/35/28
f 31/28/21 32/32/25 10/43/36
f 31/28/21 22/27/20 32/32/25
f 22/27/20 5/23/16 32/32/25
f 29/25/18 30/31/24 9/40/33
f 29/25/18 21/24/17 30/31/24
f 21/24/17 4/20/13 30/31/24
f 27/22/15 28/60/23 8/55/30
f 27/22/15 19/21/14 28/60/23
f 19/21/14 3/61/10 28/60/23
f 25/19/12 26/29/22 7/34/27
f 25/19/12 15/18/11 26/29/22
f 15/18/11 2/4/4 26/29/22
f 23/16/9 24/33/26 11/46/39
f 23/16/9 16/6/5 24/33/26
f 16/6/5 6/26/19 24/33/26
f 17/15/8 22/27/20 6/26/19
f 17/15/8 20/14/7 22/27/20
f 20/14/7 5/23/16 22/27/20
f 20/12/7 21/24/17 5/23/16
f 20/12/7 18/11/6 21/24/17
f 18/11/6 4/20/13 21/24/17
f 18/9/6 19/21/14 4/20/13
f 18/9/6 13/8/3 19/21/14
f 13/8/3 3/61/10 19/21/14
f 16/6/5 17/62/8 6/26/19
f 16/6/5 14/5/2 17/62/8
f 14/5/2 1/63/1 17/62/8
f 13/3/3 15/18/11 3/17/10
f 13/3/3 14/2/2 15/18/11
f 14/2/2 2/4/4 15/18/11
